<?xml version="1.0" encoding="UTF-8"?>
<!DOCTYPE svg PUBLIC "-//W3C//DTD SVG 1.1//EN" "http://www.w3.org/Graphics/SVG/1.1/DTD/svg11.dtd">
<!-- Creator: CorelDRAW 2019 (64-Bit Evaluation Version) -->
<svg xmlns="http://www.w3.org/2000/svg" xml:space="preserve" width="873px" height="265px" version="1.1" style="shape-rendering:geometricPrecision; text-rendering:geometricPrecision; image-rendering:optimizeQuality; fill-rule:evenodd; clip-rule:evenodd"
viewBox="0 0 584.23 177.47"
 xmlns:xlink="http://www.w3.org/1999/xlink"
 xmlns:xodm="http://www.corel.com/coreldraw/odm/2003">
 <defs>
  <style type="text/css">
   <![CDATA[
    .fil1 {fill:black}
    .fil2 {fill:black;fill-rule:nonzero}
    .fil0 {fill:url(#id0)}
   ]]>
  </style>
  <linearGradient id="id0" gradientUnits="userSpaceOnUse" x1="55.13" y1="155.83" x2="89.95" y2="3.13">
   <stop offset="0" style="stop-opacity:1; stop-color:#7DD3F7"/>
   <stop offset="1" style="stop-opacity:1; stop-color:#398EDB"/>
  </linearGradient>
 </defs>
 <g id="Layer_x0020_1">
  <metadata id="CorelCorpID_0Corel-Layer"/>
  <g id="_2464008487424">
   <path class="fil0" d="M48.72 39.87c5.25,-4.3 10.79,-8.43 16.23,-13.3 -1.02,-0.59 -15.84,-14.8 -17.67,-16.64l-8.8 -8.18c-1.59,-1.21 -3.25,-1.73 -4.86,-1.75 -3.88,-0.04 -9.67,4.48 -11.39,7.75 -3.08,5.84 4.87,10.73 9.3,15.19 1.95,1.96 16.95,16.23 17.19,16.93zm11.6 74.09l-15.98 13.24c-0.69,0.81 -2.55,2.15 -3.51,2.98 -1.28,1.11 -2.42,1.99 -3.77,3.08 -2.8,2.23 -13.08,10.28 -14.29,12.83 -2.03,4.31 1.42,6.75 3.55,8.9 7.39,7.41 11.42,3.07 17.38,-1.94l72.96 -59.89c1.65,-1.19 5.72,-4.51 6.48,-6.41 1.59,-3.99 -1.96,-6.49 -3.81,-8.33 -4.42,-4.39 -8.92,-8.32 -13.28,-12.74 -1.14,-1.15 -2.12,-1.84 -3.29,-3.02 -1.23,-1.22 -2.05,-2.09 -3.4,-3.18l-13.31 -12.7c-1.7,-1.7 -5.6,-4.83 -6.65,-6.55 -1.02,0.23 -7.12,5.53 -8.31,6.53 -1.34,1.13 -7.65,6.07 -8.08,6.93l19.2 18.56c2.12,2.12 8.22,7.28 9.44,9.47 2.9,5.24 -1.51,7.54 -4.24,9.9 -6.97,6 -14.14,11.85 -21.25,17.69 -2.76,2.27 -5.05,4.12 -5.84,4.65z"/>
   <path class="fil1" d="M58.68 140.75l26.54 24.92c4.02,3.73 9.01,1.86 12.06,-1.23 3.07,-3.12 6.74,-5.62 2.91,-10.73l-25.76 -25.88 -15.75 12.92zm-34.67 -80.54c-4.06,3.52 -8.32,6.59 -12.34,10.12 -3.7,3.25 -10.87,7.83 -11.58,11.19 -0.62,2.95 2.11,6.04 3.66,7.28l5.83 5.4 2.77 2.71 8.77 8.22 11.5 10.96c2.1,2.07 11.01,9.92 11.72,11.11l15.98 -13.24 -22.76 -22.53c-8.01,-8 -9.36,-9.2 0.44,-17.23l20.74 -17.06c1.43,-1.14 2.79,-2.55 4.27,-3.45 0.43,-0.86 6.74,-5.8 8.08,-6.93 1.19,-1 7.29,-6.3 8.31,-6.53 0.84,-1.13 5.75,-4.96 7.24,-6.14 2.78,-2.22 13.02,-10.15 14.18,-12.67 2.05,-4.46 -1.52,-6.88 -3.55,-8.88 -7.53,-7.42 -11.36,-2.81 -17.35,1.94 -18.3,14.51 -38.57,30.69 -55.91,45.73z"/>
   <path class="fil2" d="M166.27 96.62l0 -76.38c0,-1.25 0.66,-2.34 1.97,-3.28 1.32,-0.94 3,-1.41 5.06,-1.41l21.81 0c8.79,0 15.82,2.15 21.08,6.45 5.26,4.3 7.88,11.11 7.88,20.42l0 32.03c0,9.3 -2.62,16.11 -7.88,20.41 -5.26,4.3 -12.29,6.45 -21.08,6.45l-21.81 0c-2.06,0 -3.74,-0.47 -5.06,-1.41 -1.31,-0.93 -1.97,-2.03 -1.97,-3.28zm16.02 -8.68l12.82 0c8.63,0 12.94,-4.5 12.94,-13.49l0 -32.03c0,-9 -4.31,-13.5 -12.94,-13.5l-12.82 0 0 59.02zm55.46 8.56l0 -76.14c0,-1.56 0.78,-2.76 2.35,-3.58 1.56,-0.82 3.45,-1.23 5.67,-1.23 2.95,0 5.21,0.51 6.77,1.52 1.57,1.02 3.29,3.21 5.18,6.57l23.79 43.77 0 -47.17c0,-1.56 0.78,-2.74 2.34,-3.52 1.56,-0.78 3.45,-1.17 5.67,-1.17 2.22,0 4.11,0.39 5.67,1.17 1.56,0.78 2.34,1.96 2.34,3.52l0 76.26c0,1.49 -0.8,2.66 -2.4,3.52 -1.61,0.86 -3.48,1.29 -5.61,1.29 -4.36,0 -7.44,-1.6 -9.25,-4.81l-26.49 -47.16 0 47.16c0,1.49 -0.8,2.66 -2.41,3.52 -1.6,0.86 -3.47,1.29 -5.6,1.29 -2.22,0 -4.11,-0.43 -5.67,-1.29 -1.57,-0.86 -2.35,-2.03 -2.35,-3.52zm68.78 -2.23c0,-0.78 0.33,-1.72 0.98,-2.81l21.32 -33.09 -20.58 -32.97c-0.74,-1.17 -1.11,-2.26 -1.11,-3.28 0,-1.96 1.09,-3.64 3.27,-5.05 2.18,-1.4 4.5,-2.11 6.96,-2.11 2.3,0 4.07,1.1 5.3,3.29l16.76 28.74 16.76 -28.74c1.32,-2.19 3.13,-3.29 5.43,-3.29 2.46,0 4.78,0.71 6.96,2.11 2.18,1.41 3.27,3.09 3.27,5.05 0,1.02 -0.37,2.11 -1.11,3.28l-20.58 32.97 21.32 33.09c0.57,1.01 0.86,1.95 0.86,2.81 0,2.04 -1.15,3.82 -3.45,5.34 -2.3,1.53 -4.64,2.29 -7.03,2.29 -1.97,0 -3.41,-0.82 -4.31,-2.47l-18.12 -30.15 -17.99 30.15c-0.99,1.65 -2.47,2.47 -4.44,2.47 -2.3,0 -4.62,-0.76 -6.96,-2.29 -2.34,-1.52 -3.51,-3.3 -3.51,-5.34z"/>
   <path class="fil2" d="M385.45 96.27l0 -76.08c0,-1.63 0.94,-2.44 2.82,-2.44l18.33 0c7.67,0 13.6,1.31 17.79,3.93 4.19,2.62 6.28,7.5 6.28,14.65 0,4.65 -0.9,8.57 -2.7,11.78 -1.8,3.21 -4.23,5.44 -7.28,6.69 3.91,1.55 6.91,3.8 8.98,6.75 2.08,2.95 3.12,7.11 3.12,12.49l0 2c0,7.88 -2.1,13.62 -6.29,17.19 -4.19,3.58 -9.8,5.37 -16.85,5.37l-21.38 0c-0.86,0 -1.54,-0.23 -2.05,-0.67 -0.51,-0.44 -0.77,-0.99 -0.77,-1.66zm5.88 -2.98l17.85 0c11.82,0 17.73,-5.83 17.73,-17.48l0 -1.88c0,-5.82 -1.5,-10.04 -4.52,-12.66 -3.01,-2.62 -7.42,-3.92 -13.21,-3.92l-17.85 0 0 35.94zm0 -41.03l15.85 0c6.19,0 10.67,-1.16 13.45,-3.49 2.78,-2.32 4.17,-6.32 4.17,-12 0,-5.3 -1.53,-8.92 -4.58,-10.83 -3.05,-1.92 -7.56,-2.88 -13.51,-2.88l-15.38 0 0 29.2zm50.08 43.9l0 -47.55c0,-1.48 0.93,-2.21 2.81,-2.21 0.79,0 1.45,0.2 2,0.61 0.55,0.4 0.82,0.93 0.82,1.6l0 5.64c1.41,-2.43 3.51,-4.46 6.29,-6.08 2.78,-1.63 6.01,-2.44 9.69,-2.44l4.22 0c0.71,0 1.32,0.24 1.83,0.72 0.5,0.48 0.76,1.09 0.76,1.83 0,0.73 -0.26,1.34 -0.76,1.82 -0.51,0.48 -1.12,0.72 -1.83,0.72l-4.22 0c-4.23,0 -7.93,1.49 -11.1,4.48 -3.17,2.99 -4.76,6.87 -4.76,11.67l0 29.19c0,0.59 -0.29,1.15 -0.88,1.66 -0.59,0.52 -1.27,0.78 -2.06,0.78 -0.78,0 -1.44,-0.24 -1.99,-0.72 -0.55,-0.48 -0.82,-1.05 -0.82,-1.72zm27.29 -11.5c0,-5.53 2.33,-9.38 6.99,-11.56 4.66,-2.17 11.45,-3.26 20.37,-3.26l6.35 0 0 -2.87c0,-4.43 -1.24,-8.24 -3.7,-11.45 -2.47,-3.21 -6.17,-4.81 -11.1,-4.81 -2.98,0 -5.76,0.52 -8.34,1.55 -2.59,1.03 -3.92,1.55 -3.99,1.55 -0.79,0 -1.41,-0.34 -1.88,-1 -0.47,-0.66 -0.71,-1.33 -0.71,-1.99 0,-1.25 1.63,-2.41 4.88,-3.48 3.25,-1.07 6.67,-1.61 10.27,-1.61 6.97,0 12.1,2.01 15.39,6.03 3.29,4.02 4.93,9.09 4.93,15.21l0 29.19c0,0.67 -0.27,1.24 -0.82,1.72 -0.55,0.48 -1.21,0.72 -2,0.72 -0.78,0 -1.45,-0.24 -1.99,-0.72 -0.55,-0.48 -0.83,-1.05 -0.83,-1.72l0 -5.31c-5.16,5.61 -11.04,8.41 -17.61,8.41 -4.78,0 -8.67,-1.24 -11.69,-3.71 -3.02,-2.47 -4.52,-6.1 -4.52,-10.89zm5.75 -0.22c0,3.32 1.04,5.81 3.12,7.47 2.07,1.65 4.79,2.48 8.16,2.48 3.99,0 7.77,-1.34 11.33,-4.03 3.57,-2.69 5.35,-5.33 5.35,-7.91l0 -8.18 -5.76 0c-3.36,0 -6.18,0.11 -8.45,0.33 -2.28,0.22 -4.55,0.64 -6.82,1.27 -2.27,0.63 -3.99,1.66 -5.17,3.1 -1.17,1.43 -1.76,3.26 -1.76,5.47zm40.22 7.3c0,-0.59 0.21,-1.16 0.64,-1.71 0.43,-0.56 0.92,-0.83 1.47,-0.83 0.47,-0.08 1.1,0.18 1.88,0.77l2.7 1.77c0.94,0.59 2.39,1.18 4.35,1.77 1.95,0.59 4.15,0.88 6.57,0.88 4.39,0 7.64,-0.79 9.75,-2.37 2.12,-1.59 3.17,-3.64 3.17,-6.14 0,-2.97 -0.99,-5.29 -2.99,-7.01 -1.98,-1.69 -4.41,-2.96 -7.24,-3.78 -2.84,-0.81 -5.72,-1.62 -8.64,-2.45 -2.91,-0.83 -5.38,-2.25 -7.38,-4.24 -1.99,-1.99 -2.99,-4.68 -2.99,-8.07 0,-3.83 1.51,-7.22 4.52,-10.17 3.01,-2.95 7.46,-4.43 13.33,-4.43 3.68,0 7.11,0.54 10.28,1.61 3.17,1.07 4.76,2.19 4.76,3.37 0,0.59 -0.28,1.22 -0.83,1.88 -0.55,0.66 -1.13,1 -1.76,1 -0.08,0 -1.45,-0.5 -4.11,-1.5 -2.66,-0.99 -5.4,-1.49 -8.22,-1.49 -4.23,0 -7.38,0.99 -9.46,2.99 -2.07,1.99 -3.11,4.2 -3.11,6.63 0,2.49 1,4.44 3,5.84 1.99,1.4 4.44,2.51 7.32,3.34 2.88,0.81 5.77,1.64 8.69,2.47 2.92,0.83 5.36,2.38 7.36,4.64 2,2.25 2.99,5.26 2.99,9.04 0,4.27 -1.6,7.63 -4.81,10.06 -3.21,2.43 -7.71,3.65 -13.51,3.65 -5.01,0 -9.22,-0.83 -12.62,-2.49 -3.41,-1.66 -5.11,-3.34 -5.11,-5.03zm41.38 -65.91c0,-1.04 0.43,-1.94 1.3,-2.71 0.86,-0.78 1.91,-1.16 3.17,-1.16 1.17,0 2.19,0.38 3.05,1.16 0.86,0.77 1.29,1.67 1.29,2.71 0,1.1 -0.43,2.06 -1.29,2.87 -0.86,0.81 -1.88,1.22 -3.05,1.22 -1.26,0 -2.31,-0.41 -3.17,-1.22 -0.87,-0.81 -1.3,-1.77 -1.3,-2.87zm1.65 70.33l0 -47.55c0,-1.48 0.94,-2.21 2.82,-2.21 1.95,0 2.93,0.73 2.93,2.21l0 47.55c0,0.59 -0.29,1.15 -0.88,1.66 -0.59,0.52 -1.27,0.78 -2.05,0.78 -0.79,0 -1.45,-0.24 -2,-0.72 -0.55,-0.48 -0.82,-1.05 -0.82,-1.72zm17.19 0l0 -79.95c0,-0.67 0.27,-1.22 0.82,-1.66 0.55,-0.45 1.21,-0.67 2,-0.67 0.86,0 1.56,0.22 2.11,0.67 0.55,0.44 0.82,0.99 0.82,1.66l0 79.95c0,0.59 -0.29,1.15 -0.88,1.66 -0.58,0.52 -1.27,0.78 -2.05,0.78 -0.79,0 -1.45,-0.24 -2,-0.72 -0.55,-0.48 -0.82,-1.05 -0.82,-1.72z"/>
   <path class="fil2" d="M162.69 161.16c0,-0.56 0.21,-1.09 0.64,-1.61 0.42,-0.52 0.89,-0.78 1.4,-0.78 0.33,0 0.75,0.22 1.26,0.65 0.52,0.43 1.05,0.92 1.6,1.45 0.55,0.54 1.41,1.02 2.59,1.45 1.17,0.43 2.49,0.65 3.96,0.65 2.38,0 4.25,-0.54 5.61,-1.63 1.36,-1.09 2.03,-2.69 2.03,-4.79 0,-1.9 -0.62,-3.45 -1.87,-4.64 -1.24,-1.19 -2.75,-2.1 -4.51,-2.72 -1.76,-0.62 -3.53,-1.29 -5.31,-1.99 -1.78,-0.71 -3.29,-1.8 -4.54,-3.27 -1.24,-1.47 -1.87,-3.36 -1.87,-5.67 0,-1.81 0.37,-3.39 1.1,-4.74 0.74,-1.35 1.72,-2.36 2.95,-3.04 1.23,-0.67 2.5,-1.17 3.82,-1.48 1.32,-0.32 2.73,-0.48 4.24,-0.48 2.27,0 4.44,0.31 6.52,0.93 2.07,0.63 3.11,1.48 3.11,2.59 0,0.48 -0.19,1 -0.55,1.56 -0.37,0.55 -0.85,0.83 -1.44,0.83 -0.14,0 -0.99,-0.33 -2.53,-0.99 -1.54,-0.65 -3.24,-0.98 -5.11,-0.98 -2.24,0 -4.05,0.43 -5.42,1.29 -1.38,0.87 -2.06,2.23 -2.06,4.1 0,1.58 0.62,2.87 1.87,3.86 1.24,0.98 2.76,1.77 4.53,2.35 1.78,0.59 3.55,1.26 5.31,2.02 1.76,0.76 3.27,1.98 4.51,3.65 1.25,1.68 1.88,3.81 1.88,6.4 0,3.56 -1.1,6.24 -3.31,8.06 -2.2,1.81 -5.11,2.72 -8.74,2.72 -3.27,0 -6.03,-0.65 -8.28,-1.94 -2.26,-1.28 -3.39,-2.56 -3.39,-3.81zm25.72 -4.3l0 -5.29c0,-2.66 1.07,-4.98 3.22,-6.96 2.14,-1.99 4.68,-2.98 7.62,-2.98 2.93,0 5.48,0.98 7.64,2.95 2.17,1.97 3.25,4.3 3.25,6.99l0 5.29c0,2.62 -1.09,4.95 -3.27,6.99 -2.19,2.04 -4.73,3.06 -7.62,3.06 -2.9,0 -5.43,-1.01 -7.6,-3.03 -2.16,-2.02 -3.24,-4.36 -3.24,-7.02zm4.56 -0.02c0,1.61 0.63,3.04 1.87,4.27 1.25,1.24 2.72,1.86 4.41,1.86 1.72,0 3.2,-0.63 4.45,-1.88 1.25,-1.25 1.87,-2.67 1.87,-4.25l0 -5.25c0,-1.54 -0.62,-2.93 -1.87,-4.17 -1.25,-1.23 -2.73,-1.86 -4.45,-1.86 -1.73,0 -3.21,0.63 -4.43,1.86 -1.23,1.24 -1.85,2.63 -1.85,4.17l0 5.25zm20.82 8.1l0 -36.31c0,-0.45 0.21,-0.82 0.63,-1.09 0.42,-0.28 0.97,-0.42 1.63,-0.42 0.66,0 1.21,0.14 1.65,0.42 0.44,0.27 0.66,0.64 0.66,1.09l0 36.31c0,0.38 -0.23,0.73 -0.69,1.06 -0.46,0.33 -1,0.49 -1.62,0.49 -0.63,0 -1.16,-0.15 -1.6,-0.46 -0.44,-0.32 -0.66,-0.68 -0.66,-1.09zm8.99 -7.98l0 -13.47c0,-0.41 0.23,-0.77 0.69,-1.09 0.45,-0.31 1,-0.46 1.62,-0.46 0.59,0 1.11,0.16 1.57,0.49 0.46,0.33 0.68,0.68 0.68,1.06l0 13.44c0,1.54 0.63,2.94 1.88,4.18 1.24,1.24 2.73,1.86 4.45,1.86 1.69,0 3.16,-0.61 4.4,-1.83 1.25,-1.23 1.87,-2.63 1.87,-4.21l0 -13.49c0,-0.38 0.23,-0.72 0.69,-1.04 0.46,-0.31 1,-0.46 1.62,-0.46 0.66,0 1.2,0.15 1.63,0.44 0.42,0.29 0.63,0.65 0.63,1.06l0 13.52c0,2.66 -1.07,4.98 -3.22,6.97 -2.15,1.98 -4.68,2.98 -7.62,2.98 -2.97,0 -5.53,-1 -7.67,-2.98 -2.15,-1.99 -3.22,-4.31 -3.22,-6.97zm24.72 -0.1l0 -5.18c0,-2.97 0.93,-5.39 2.78,-7.26 1.85,-1.86 4.57,-2.79 8.17,-2.79 2.27,0 4.19,0.38 5.75,1.14 1.56,0.76 2.34,1.57 2.34,2.43 0,0.49 -0.2,0.96 -0.58,1.43 -0.39,0.46 -0.84,0.7 -1.35,0.7 -0.15,0 -0.78,-0.3 -1.9,-0.89 -1.12,-0.58 -2.43,-0.88 -3.93,-0.88 -2.2,0 -3.87,0.53 -5.01,1.59 -1.13,1.06 -1.7,2.58 -1.7,4.53l0 5.13c0,4.07 2.25,6.11 6.76,6.11 1.54,0 2.88,-0.31 4.02,-0.93 1.14,-0.61 1.8,-0.92 1.98,-0.92 0.59,0 1.07,0.22 1.46,0.66 0.38,0.45 0.58,0.92 0.58,1.4 0,0.81 -0.7,1.61 -2.09,2.37 -1.4,0.76 -3.14,1.22 -5.23,1.35l-0.72 2.65c1.76,0.03 3.08,0.41 3.97,1.14 0.88,0.72 1.32,1.6 1.32,2.64 0,1.1 -0.44,2.08 -1.3,2.92 -0.86,0.85 -2.13,1.27 -3.82,1.27 -0.99,0 -1.97,-0.12 -2.94,-0.36 -0.98,-0.24 -1.46,-0.59 -1.46,-1.04 0,-0.24 0.09,-0.54 0.27,-0.9 0.19,-0.36 0.42,-0.55 0.72,-0.55 0.07,0 0.43,0.13 1.07,0.37 0.64,0.24 1.31,0.36 2.01,0.36 1.91,0 2.86,-0.64 2.86,-1.92 0,-1.24 -1.08,-1.95 -3.25,-2.12l-2.36 -0.16 1.21 -4.3c-3.19,-0.2 -5.6,-1.22 -7.21,-3.05 -1.61,-1.83 -2.42,-4.15 -2.42,-6.94zm20.27 0l0 -5.29c0,-2.66 1.07,-4.98 3.22,-6.96 2.14,-1.99 4.68,-2.98 7.62,-2.98 2.93,0 5.48,0.98 7.64,2.95 2.17,1.97 3.25,4.3 3.25,6.99l0 5.29c0,2.62 -1.09,4.95 -3.27,6.99 -2.19,2.04 -4.73,3.06 -7.62,3.06 -2.9,0 -5.43,-1.01 -7.6,-3.03 -2.16,-2.02 -3.24,-4.36 -3.24,-7.02zm2.09 -23.21c0,-0.93 0.54,-1.66 1.62,-2.18 1.08,-0.51 2.14,-0.77 3.16,-0.77 0.99,0 2.24,0.27 3.75,0.8 1.5,0.54 2.73,0.8 3.68,0.8 0.92,0 1.76,-0.26 2.53,-0.8 0.77,-0.53 1.27,-0.8 1.49,-0.8 0.4,0 0.72,0.19 0.96,0.56 0.24,0.37 0.36,0.73 0.36,1.1 0,0.99 -0.52,1.72 -1.54,2.2 -1.03,0.46 -2.06,0.7 -3.08,0.7 -1.1,0 -2.39,-0.27 -3.85,-0.81 -1.47,-0.53 -2.68,-0.8 -3.64,-0.8 -0.91,0 -1.78,0.26 -2.61,0.78 -0.82,0.51 -1.35,0.77 -1.57,0.77 -0.4,0 -0.71,-0.17 -0.93,-0.51 -0.22,-0.33 -0.33,-0.69 -0.33,-1.04zm2.47 23.19c0,1.61 0.63,3.04 1.87,4.27 1.25,1.24 2.72,1.86 4.41,1.86 1.72,0 3.2,-0.63 4.45,-1.88 1.25,-1.25 1.87,-2.67 1.87,-4.25l0 -5.25c0,-1.54 -0.62,-2.93 -1.87,-4.17 -1.25,-1.23 -2.73,-1.86 -4.45,-1.86 -1.73,0 -3.2,0.63 -4.43,1.86 -1.23,1.24 -1.85,2.63 -1.85,4.17l0 5.25zm19.34 0.02l0 -5.44c0,-2.66 1.07,-4.96 3.21,-6.89 2.15,-1.94 4.73,-2.9 7.73,-2.9 2.86,0 5.34,0.9 7.43,2.7 2.09,1.8 3.14,4.07 3.14,6.78 0,1.01 -0.13,1.82 -0.39,2.43 -0.26,0.61 -0.65,1.06 -1.18,1.31 -0.53,0.27 -1.03,0.44 -1.49,0.5 -0.46,0.07 -1.07,0.11 -1.84,0.11l-12.05 0 0 1.55c0,1.9 0.73,3.42 2.17,4.56 1.45,1.14 3.33,1.71 5.64,1.71 1.21,0 2.27,-0.17 3.17,-0.52 0.9,-0.34 1.62,-0.68 2.17,-1.01 0.55,-0.33 0.99,-0.49 1.32,-0.49 0.51,0 0.95,0.22 1.32,0.65 0.37,0.43 0.55,0.87 0.55,1.32 0,0.79 -0.83,1.6 -2.5,2.43 -1.67,0.83 -3.73,1.25 -6.19,1.25 -3.6,0 -6.53,-0.93 -8.8,-2.78 -2.28,-1.84 -3.41,-4.27 -3.41,-7.27zm4.56 -4.35l10.18 0c0.95,0 1.59,-0.12 1.92,-0.34 0.34,-0.23 0.5,-0.67 0.5,-1.32 0,-1.56 -0.61,-2.92 -1.82,-4.09 -1.21,-1.18 -2.69,-1.77 -4.45,-1.77 -1.73,0 -3.21,0.55 -4.46,1.64 -1.25,1.08 -1.87,2.42 -1.87,4.01l0 1.87zm18.07 10.46c0,-0.45 0.15,-0.89 0.47,-1.32 0.31,-0.43 0.68,-0.65 1.12,-0.65 0.3,0 0.72,0.22 1.27,0.65 0.55,0.43 1.34,0.85 2.36,1.27 1.03,0.41 2.24,0.62 3.63,0.62 1.84,0 3.17,-0.31 3.99,-0.94 0.83,-0.63 1.24,-1.42 1.24,-2.36 0,-1.16 -0.46,-2.07 -1.37,-2.75 -0.92,-0.68 -2.04,-1.19 -3.36,-1.55 -1.32,-0.34 -2.64,-0.73 -3.96,-1.15 -1.32,-0.42 -2.44,-1.12 -3.36,-2.09 -0.91,-0.98 -1.37,-2.27 -1.37,-3.88 0,-1.95 0.74,-3.64 2.23,-5.06 1.48,-1.43 3.75,-2.13 6.79,-2.13 1.94,0 3.72,0.27 5.34,0.83 1.61,0.55 2.42,1.18 2.42,1.88 0,0.41 -0.18,0.88 -0.53,1.4 -0.34,0.52 -0.78,0.77 -1.29,0.77 -0.14,0 -0.85,-0.25 -2.12,-0.76 -1.26,-0.51 -2.52,-0.76 -3.77,-0.76 -1.68,0 -2.94,0.38 -3.76,1.13 -0.83,0.75 -1.24,1.6 -1.24,2.54 0,0.98 0.46,1.75 1.37,2.31 0.92,0.55 2.05,0.99 3.39,1.3 1.34,0.32 2.67,0.7 3.99,1.16 1.32,0.46 2.43,1.23 3.35,2.33 0.92,1.1 1.38,2.52 1.38,4.27 0,2.12 -0.81,3.79 -2.42,5.03 -1.62,1.23 -3.87,1.85 -6.77,1.85 -2.49,0 -4.62,-0.43 -6.38,-1.27 -1.76,-0.85 -2.64,-1.74 -2.64,-2.67zm30.88 -6.11l0 -5.18c0,-2.97 0.93,-5.39 2.78,-7.26 1.85,-1.86 4.58,-2.79 8.17,-2.79 2.27,0 4.19,0.38 5.75,1.14 1.56,0.76 2.34,1.57 2.34,2.43 0,0.49 -0.2,0.96 -0.58,1.43 -0.39,0.46 -0.83,0.7 -1.35,0.7 -0.15,0 -0.78,-0.3 -1.9,-0.89 -1.11,-0.58 -2.43,-0.88 -3.93,-0.88 -2.2,0 -3.87,0.54 -5.01,1.6 -1.13,1.06 -1.7,2.57 -1.7,4.53l0 5.15c0,4.08 2.25,6.13 6.77,6.13 1.54,0 2.87,-0.3 4.01,-0.91 1.14,-0.6 1.8,-0.9 1.98,-0.9 0.59,0 1.08,0.22 1.46,0.67 0.38,0.45 0.58,0.91 0.58,1.4 0,0.86 -0.81,1.69 -2.42,2.48 -1.62,0.8 -3.6,1.2 -5.94,1.2 -3.64,0 -6.38,-0.93 -8.23,-2.78 -1.85,-1.84 -2.78,-4.27 -2.78,-7.27zm22.03 8.08l0 -36.31c0,-0.45 0.21,-0.82 0.63,-1.09 0.42,-0.28 0.97,-0.42 1.62,-0.42 0.67,0 1.22,0.14 1.66,0.42 0.44,0.27 0.66,0.64 0.66,1.09l0 36.31c0,0.38 -0.23,0.73 -0.69,1.06 -0.46,0.33 -1,0.49 -1.63,0.49 -0.62,0 -1.15,-0.15 -1.59,-0.46 -0.44,-0.32 -0.66,-0.68 -0.66,-1.09zm8.22 -8.08l0 -5.29c0,-2.66 1.07,-4.98 3.22,-6.96 2.14,-1.99 4.68,-2.98 7.62,-2.98 2.93,0 5.48,0.98 7.64,2.95 2.17,1.97 3.25,4.3 3.25,6.99l0 5.29c0,2.62 -1.09,4.95 -3.27,6.99 -2.19,2.04 -4.73,3.06 -7.62,3.06 -2.9,0 -5.43,-1.01 -7.6,-3.03 -2.16,-2.02 -3.24,-4.36 -3.24,-7.02zm4.56 -0.02c0,1.61 0.63,3.04 1.87,4.27 1.25,1.24 2.72,1.86 4.41,1.86 1.72,0 3.21,-0.63 4.45,-1.88 1.25,-1.25 1.87,-2.67 1.87,-4.25l0 -5.25c0,-1.54 -0.62,-2.93 -1.87,-4.17 -1.24,-1.23 -2.73,-1.86 -4.45,-1.86 -1.73,0 -3.2,0.63 -4.43,1.86 -1.23,1.24 -1.85,2.63 -1.85,4.17l0 5.25zm20.1 0.12l0 -13.47c0,-0.41 0.23,-0.77 0.69,-1.09 0.46,-0.31 1,-0.46 1.63,-0.46 0.58,0 1.11,0.16 1.56,0.49 0.46,0.33 0.69,0.68 0.69,1.06l0 13.44c0,1.54 0.62,2.94 1.87,4.18 1.25,1.24 2.73,1.86 4.46,1.86 1.69,0 3.15,-0.61 4.4,-1.83 1.25,-1.23 1.87,-2.63 1.87,-4.21l0 -13.49c0,-0.38 0.23,-0.72 0.69,-1.04 0.46,-0.31 1,-0.46 1.62,-0.46 0.66,0 1.2,0.15 1.62,0.44 0.43,0.29 0.64,0.65 0.64,1.06l0 13.52c0,2.66 -1.08,4.98 -3.22,6.97 -2.15,1.98 -4.69,2.98 -7.62,2.98 -2.97,0 -5.53,-1 -7.68,-2.98 -2.14,-1.99 -3.22,-4.31 -3.22,-6.97zm24.67 -0.1l0 -5.29c0,-2.73 0.97,-5.07 2.92,-7.02 1.94,-1.95 4.25,-2.92 6.93,-2.92 1.65,0 3.1,0.39 4.35,1.15 1.24,0.77 2.2,1.71 2.86,2.84l0 -16.94c0,-0.45 0.22,-0.81 0.66,-1.09 0.44,-0.28 0.99,-0.42 1.65,-0.42 0.66,0 1.2,0.14 1.62,0.42 0.42,0.28 0.63,0.64 0.63,1.09l0 36.26c0,0.41 -0.22,0.77 -0.66,1.09 -0.44,0.31 -0.97,0.46 -1.59,0.46 -0.55,0 -1.04,-0.15 -1.46,-0.47 -0.42,-0.31 -0.63,-0.69 -0.63,-1.11l0 -2.1c-0.63,1.13 -1.63,2.08 -3.03,2.89 -1.39,0.8 -2.91,1.21 -4.56,1.21 -2.57,0 -4.83,-1.02 -6.77,-3.06 -1.95,-2.04 -2.92,-4.37 -2.92,-6.99zm4.57 -0.02c0,1.58 0.62,3 1.87,4.25 1.25,1.25 2.69,1.88 4.35,1.88 1.61,0 3.06,-0.58 4.34,-1.73 1.29,-1.15 1.93,-2.15 1.93,-3.01l0 -6.64c0,-1.79 -0.63,-3.24 -1.87,-4.35 -1.25,-1.11 -2.7,-1.68 -4.35,-1.68 -1.69,0 -3.15,0.63 -4.4,1.86 -1.25,1.24 -1.87,2.63 -1.87,4.17l0 5.25zm20.6 -2.75c0,-0.51 0.14,-0.95 0.44,-1.31 0.29,-0.35 0.67,-0.53 1.15,-0.53l14.3 0c0.44,0 0.83,0.18 1.16,0.53 0.33,0.36 0.49,0.8 0.49,1.31 0,0.51 -0.16,0.93 -0.49,1.27 -0.33,0.34 -0.72,0.51 -1.16,0.51l-14.3 0c-1.06,0 -1.59,-0.59 -1.59,-1.78zm21.03 10.85l0 -21.5c0,-0.45 0.21,-0.81 0.63,-1.09 0.43,-0.27 0.97,-0.41 1.63,-0.41 0.55,0 1.03,0.15 1.46,0.45 0.42,0.29 0.63,0.65 0.63,1.08l0 2.15c0.59,-1.13 1.53,-2.07 2.83,-2.84 1.3,-0.76 2.82,-1.15 4.54,-1.15 2.6,0 4.87,0.97 6.79,2.92 1.93,1.95 2.89,4.29 2.89,7.02l0 13.37c0,0.48 -0.23,0.86 -0.68,1.14 -0.46,0.27 -1,0.41 -1.63,0.41 -0.59,0 -1.11,-0.14 -1.57,-0.41 -0.45,-0.28 -0.68,-0.66 -0.68,-1.14l0 -13.33c0,-1.55 -0.63,-2.95 -1.87,-4.19 -1.25,-1.23 -2.72,-1.86 -4.41,-1.86 -1.57,0 -2.97,0.57 -4.18,1.69 -1.21,1.11 -1.81,2.57 -1.81,4.36l0 13.33c0,0.38 -0.24,0.73 -0.72,1.06 -0.47,0.33 -1.01,0.49 -1.59,0.49 -0.63,0 -1.16,-0.15 -1.6,-0.46 -0.44,-0.32 -0.66,-0.68 -0.66,-1.09zm23.62 -4.86c0,-2.72 1.1,-4.61 3.31,-5.68 2.2,-1.06 5.39,-1.58 9.57,-1.58l2.64 0 0 -1.1c0,-1.74 -0.51,-3.25 -1.51,-4.53 -1.01,-1.29 -2.53,-1.94 -4.54,-1.94 -1.54,0 -2.9,0.26 -4.07,0.78 -1.18,0.52 -1.82,0.78 -1.93,0.78 -0.51,0 -0.93,-0.24 -1.24,-0.7 -0.31,-0.47 -0.47,-0.96 -0.47,-1.48 0,-0.79 0.84,-1.49 2.51,-2.1 1.67,-0.6 3.44,-0.9 5.31,-0.9 3.59,0 6.24,0.96 7.95,2.87 1.7,1.92 2.55,4.31 2.55,7.18l0 13.26c0,0.45 -0.21,0.82 -0.63,1.11 -0.42,0.29 -0.96,0.44 -1.62,0.44 -0.59,0 -1.08,-0.15 -1.49,-0.43 -0.4,-0.28 -0.6,-0.65 -0.6,-1.08l0 -2.02c-2.5,2.63 -5.26,3.95 -8.31,3.95 -2.2,0 -3.99,-0.58 -5.36,-1.75 -1.38,-1.16 -2.07,-2.86 -2.07,-5.08zm4.63 -0.48c0,1.3 0.38,2.27 1.15,2.94 0.77,0.66 1.8,1 3.08,1 1.54,0 3.04,-0.59 4.49,-1.76 1.44,-1.17 2.17,-2.37 2.17,-3.59l0 -2.73 -1.93 0c-1.06,0 -1.98,0.02 -2.75,0.08 -0.77,0.05 -1.57,0.15 -2.39,0.32 -0.83,0.15 -1.5,0.38 -2.04,0.68 -0.53,0.29 -0.96,0.7 -1.29,1.2 -0.33,0.51 -0.49,1.13 -0.49,1.86zm19.27 -0.93l0 -26.68c0,-0.41 0.24,-0.77 0.72,-1.06 0.47,-0.29 0.99,-0.44 1.54,-0.44 0.58,0 1.12,0.15 1.59,0.44 0.48,0.29 0.72,0.65 0.72,1.06l0 9.95 6.93 0c0.4,0 0.73,0.17 0.99,0.52 0.26,0.34 0.39,0.74 0.39,1.19 0,0.45 -0.13,0.84 -0.39,1.16 -0.26,0.33 -0.59,0.5 -0.99,0.5l-6.93 0 0 13.24c0,1.48 0.34,2.51 1.02,3.11 0.67,0.59 1.86,0.89 3.54,0.89l1.71 0c0.62,0 1.11,0.19 1.46,0.57 0.35,0.38 0.52,0.83 0.52,1.38 0,0.53 -0.18,1 -0.55,1.4 -0.37,0.39 -0.84,0.59 -1.43,0.59l-1.71 0c-6.08,0 -9.13,-2.61 -9.13,-7.82zm15.07 -24.22c-0.57,-0.5 -0.85,-1.08 -0.85,-1.73 0,-0.66 0.27,-1.23 0.82,-1.71 0.55,-0.49 1.23,-0.73 2.04,-0.73 0.77,0 1.43,0.24 1.98,0.73 0.55,0.48 0.82,1.05 0.82,1.71 0,0.65 -0.27,1.23 -0.82,1.73 -0.55,0.5 -1.21,0.75 -1.98,0.75 -0.77,0 -1.44,-0.25 -2.01,-0.75zm-0.25 30.49l0 -21.5c0,-0.45 0.22,-0.81 0.66,-1.09 0.44,-0.27 0.97,-0.41 1.6,-0.41 0.66,0 1.21,0.14 1.65,0.41 0.44,0.28 0.66,0.64 0.66,1.09l0 21.5c0,0.38 -0.23,0.73 -0.69,1.06 -0.46,0.33 -1,0.49 -1.62,0.49 -0.63,0 -1.16,-0.15 -1.6,-0.46 -0.44,-0.32 -0.66,-0.68 -0.66,-1.09zm6.13 -21.24c0,-0.48 0.32,-0.92 0.96,-1.3 0.64,-0.38 1.29,-0.57 1.95,-0.57 0.77,0 1.27,0.28 1.49,0.83l6.99 17.62 6.87 -17.41c0.3,-0.69 0.79,-1.04 1.49,-1.04 0.59,0 1.23,0.19 1.92,0.57 0.7,0.38 1.05,0.82 1.05,1.3 0,0.28 -0.07,0.55 -0.22,0.83l-9.02 21.5c-0.3,0.62 -0.99,0.93 -2.09,0.93 -1.14,0 -1.86,-0.31 -2.15,-0.93l-9.02 -21.5c-0.15,-0.42 -0.22,-0.69 -0.22,-0.83zm23.29 13.16l0 -5.44c0,-2.66 1.07,-4.96 3.22,-6.89 2.14,-1.94 4.72,-2.9 7.73,-2.9 2.86,0 5.34,0.9 7.43,2.7 2.09,1.8 3.13,4.07 3.13,6.78 0,1.01 -0.13,1.82 -0.38,2.43 -0.26,0.61 -0.65,1.06 -1.18,1.31 -0.54,0.27 -1.03,0.44 -1.49,0.5 -0.46,0.07 -1.07,0.11 -1.84,0.11l-12.05 0 0 1.55c0,1.9 0.72,3.42 2.17,4.56 1.45,1.14 3.33,1.71 5.64,1.71 1.21,0 2.27,-0.17 3.16,-0.52 0.9,-0.34 1.63,-0.68 2.18,-1.01 0.55,-0.33 0.99,-0.49 1.32,-0.49 0.51,0 0.95,0.22 1.32,0.65 0.36,0.43 0.55,0.87 0.55,1.32 0,0.79 -0.84,1.6 -2.51,2.43 -1.66,0.83 -3.73,1.25 -6.19,1.25 -3.59,0 -6.52,-0.93 -8.8,-2.78 -2.27,-1.84 -3.41,-4.27 -3.41,-7.27zm4.57 -4.35l10.18 0c0.95,0 1.59,-0.12 1.92,-0.34 0.33,-0.23 0.5,-0.67 0.5,-1.32 0,-1.56 -0.61,-2.92 -1.82,-4.09 -1.21,-1.18 -2.7,-1.77 -4.46,-1.77 -1.72,0 -3.21,0.55 -4.45,1.64 -1.25,1.08 -1.87,2.42 -1.87,4.01l0 1.87z"/>
  </g>
 </g>
</svg>
