<?xml version="1.0" encoding="UTF-8"?>
<!DOCTYPE svg PUBLIC "-//W3C//DTD SVG 1.1//EN" "http://www.w3.org/Graphics/SVG/1.1/DTD/svg11.dtd">
<!-- Creator: CorelDRAW 2019 (64-Bit Evaluation Version) -->
<svg xmlns="http://www.w3.org/2000/svg" xml:space="preserve" width="1211px" height="143px" version="1.1" style="shape-rendering:geometricPrecision; text-rendering:geometricPrecision; image-rendering:optimizeQuality; fill-rule:evenodd; clip-rule:evenodd"
viewBox="0 0 1134.14 133.87"
 xmlns:xlink="http://www.w3.org/1999/xlink"
 xmlns:xodm="http://www.corel.com/coreldraw/odm/2003">
 <defs>
  <style type="text/css">
   <![CDATA[
    .fil1 {fill:white}
    .fil2 {fill:white;fill-rule:nonzero}
    .fil0 {fill:url(#id0)}
   ]]>
  </style>
  <linearGradient id="id0" gradientUnits="userSpaceOnUse" x1="44" y1="124.37" x2="71.79" y2="2.5">
   <stop offset="0" style="stop-opacity:1; stop-color:#7DD3F7"/>
   <stop offset="1" style="stop-opacity:1; stop-color:#398EDB"/>
  </linearGradient>
 </defs>
 <g id="Layer_x0020_1">
  <metadata id="CorelCorpID_0Corel-Layer"/>
  <path class="fil0" d="M38.88 31.82c4.19,-3.43 8.62,-6.73 12.96,-10.61 -0.82,-0.47 -12.64,-11.82 -14.1,-13.29l-7.03 -6.52c-1.27,-0.97 -2.59,-1.38 -3.88,-1.4 -3.09,-0.03 -7.72,3.58 -9.09,6.19 -2.45,4.66 3.89,8.56 7.43,12.12 1.55,1.57 13.52,12.96 13.71,13.51zm9.26 59.13l-12.75 10.57c-0.55,0.64 -2.03,1.72 -2.8,2.38 -1.02,0.89 -1.93,1.59 -3.01,2.45 -2.23,1.78 -10.44,8.21 -11.4,10.25 -1.63,3.44 1.13,5.38 2.83,7.09 5.89,5.92 9.11,2.45 13.87,-1.54l58.23 -47.8c1.32,-0.95 4.56,-3.6 5.17,-5.12 1.27,-3.18 -1.57,-5.17 -3.05,-6.64 -3.52,-3.51 -7.11,-6.64 -10.59,-10.17 -0.91,-0.92 -1.7,-1.47 -2.63,-2.41 -0.98,-0.98 -1.63,-1.67 -2.71,-2.54l-10.63 -10.14c-1.35,-1.35 -4.46,-3.85 -5.3,-5.22 -0.82,0.18 -5.68,4.41 -6.63,5.21 -1.08,0.91 -6.11,4.84 -6.45,5.53l15.32 14.81c1.69,1.69 6.57,5.81 7.53,7.56 2.32,4.18 -1.2,6.02 -3.38,7.9 -5.56,4.79 -11.29,9.46 -16.95,14.12 -2.21,1.82 -4.04,3.29 -4.67,3.71z"/>
  <path class="fil1" d="M46.83 112.34l21.19 19.88c3.2,2.98 7.19,1.48 9.62,-0.98 2.45,-2.49 5.37,-4.48 2.32,-8.56l-20.56 -20.66 -12.57 10.32zm-27.67 -64.29c-3.24,2.81 -6.64,5.26 -9.85,8.08 -2.95,2.59 -8.67,6.25 -9.24,8.93 -0.49,2.36 1.69,4.82 2.93,5.81l4.65 4.31 2.21 2.16 7 6.56 9.17 8.75c1.68,1.65 8.79,7.92 9.36,8.87l12.75 -10.57 -18.17 -17.98c-6.38,-6.39 -7.46,-7.34 0.36,-13.75l16.55 -13.62c1.14,-0.91 2.23,-2.03 3.41,-2.75 0.34,-0.69 5.37,-4.62 6.45,-5.53 0.95,-0.8 5.81,-5.03 6.63,-5.21 0.67,-0.9 4.59,-3.96 5.78,-4.9 2.22,-1.77 10.39,-8.1 11.32,-10.12 1.63,-3.56 -1.22,-5.49 -2.84,-7.08 -6.01,-5.93 -9.06,-2.24 -13.85,1.55 -14.6,11.58 -30.78,24.49 -44.62,36.49z"/>
  <path class="fil2" d="M625.84 83.04c0,-0.66 0.26,-1.31 0.77,-1.93 0.5,-0.63 1.07,-0.94 1.69,-0.94 0.4,0 0.9,0.26 1.52,0.78 0.62,0.52 1.26,1.1 1.93,1.75 0.66,0.65 1.7,1.23 3.12,1.75 1.41,0.52 3,0.78 4.77,0.78 2.88,0 5.13,-0.66 6.77,-1.97 1.64,-1.31 2.45,-3.24 2.45,-5.78 0,-2.29 -0.75,-4.15 -2.25,-5.59 -1.51,-1.43 -3.32,-2.53 -5.44,-3.28 -2.13,-0.74 -4.26,-1.55 -6.4,-2.4 -2.15,-0.85 -3.97,-2.17 -5.48,-3.94 -1.5,-1.77 -2.25,-4.04 -2.25,-6.83 0,-2.19 0.44,-4.1 1.32,-5.72 0.89,-1.62 2.07,-2.84 3.55,-3.66 1.49,-0.82 3.02,-1.42 4.61,-1.8 1.6,-0.38 3.3,-0.57 5.11,-0.57 2.74,0 5.36,0.38 7.86,1.13 2.5,0.75 3.75,1.78 3.75,3.11 0,0.58 -0.22,1.21 -0.66,1.88 -0.44,0.67 -1.02,1 -1.73,1 -0.17,0 -1.19,-0.39 -3.05,-1.18 -1.86,-0.8 -3.91,-1.19 -6.17,-1.19 -2.7,0 -4.87,0.52 -6.53,1.56 -1.66,1.04 -2.49,2.69 -2.49,4.94 0,1.91 0.75,3.46 2.26,4.65 1.5,1.19 3.32,2.13 5.47,2.84 2.14,0.71 4.28,1.52 6.4,2.44 2.12,0.91 3.94,2.38 5.44,4.4 1.5,2.02 2.25,4.59 2.25,7.71 0,4.29 -1.32,7.53 -3.97,9.72 -2.66,2.18 -6.18,3.28 -10.55,3.28 -3.94,0 -7.27,-0.78 -9.99,-2.34 -2.72,-1.55 -4.08,-3.09 -4.08,-4.6zm31.01 -5.18l0 -6.37c0,-3.21 1.29,-6.01 3.88,-8.4 2.59,-2.4 5.65,-3.59 9.19,-3.59 3.53,0 6.61,1.18 9.22,3.56 2.61,2.37 3.91,5.18 3.91,8.43l0 6.37c0,3.16 -1.31,5.97 -3.95,8.43 -2.63,2.46 -5.69,3.69 -9.18,3.69 -3.5,0 -6.55,-1.22 -9.16,-3.66 -2.61,-2.43 -3.91,-5.26 -3.91,-8.46zm5.5 -0.02c0,1.95 0.76,3.66 2.26,5.15 1.5,1.49 3.27,2.24 5.31,2.24 2.07,0 3.87,-0.76 5.37,-2.27 1.5,-1.51 2.25,-3.22 2.25,-5.12l0 -6.33c0,-1.86 -0.75,-3.54 -2.25,-5.03 -1.5,-1.49 -3.3,-2.24 -5.37,-2.24 -2.08,0 -3.86,0.75 -5.34,2.24 -1.48,1.49 -2.23,3.17 -2.23,5.03l0 6.33zm25.1 9.76l0 -43.78c0,-0.54 0.26,-0.98 0.77,-1.31 0.51,-0.34 1.16,-0.5 1.95,-0.5 0.8,0 1.46,0.16 2,0.5 0.53,0.33 0.79,0.77 0.79,1.31l0 43.78c0,0.46 -0.27,0.89 -0.83,1.28 -0.55,0.4 -1.2,0.6 -1.96,0.6 -0.75,0 -1.39,-0.19 -1.92,-0.57 -0.53,-0.37 -0.8,-0.81 -0.8,-1.31zm10.84 -9.62l0 -16.24c0,-0.5 0.28,-0.93 0.83,-1.31 0.55,-0.37 1.21,-0.56 1.96,-0.56 0.71,0 1.34,0.2 1.89,0.59 0.55,0.4 0.83,0.83 0.83,1.28l0 16.2c0,1.86 0.75,3.55 2.25,5.05 1.51,1.49 3.3,2.24 5.38,2.24 2.03,0 3.8,-0.74 5.31,-2.21 1.5,-1.48 2.25,-3.17 2.25,-5.08l0 -16.26c0,-0.46 0.28,-0.87 0.83,-1.25 0.55,-0.37 1.2,-0.56 1.96,-0.56 0.79,0 1.44,0.18 1.95,0.53 0.51,0.35 0.77,0.78 0.77,1.28l0 16.3c0,3.21 -1.3,6.01 -3.88,8.4 -2.59,2.4 -5.65,3.6 -9.19,3.6 -3.58,0 -6.67,-1.2 -9.26,-3.6 -2.58,-2.39 -3.88,-5.19 -3.88,-8.4zm29.81 -0.12l0 -6.25c0,-3.58 1.12,-6.49 3.35,-8.74 2.24,-2.25 5.52,-3.37 9.86,-3.37 2.74,0 5.05,0.45 6.93,1.37 1.88,0.92 2.82,1.89 2.82,2.94 0,0.58 -0.24,1.15 -0.7,1.71 -0.46,0.56 -1.01,0.85 -1.63,0.85 -0.17,0 -0.94,-0.36 -2.28,-1.07 -1.35,-0.7 -2.93,-1.06 -4.75,-1.06 -2.65,0 -4.66,0.64 -6.03,1.92 -1.38,1.28 -2.06,3.1 -2.06,5.45l0 6.19c0,4.91 2.72,7.37 8.16,7.37 1.86,0 3.47,-0.38 4.84,-1.12 1.37,-0.74 2.17,-1.11 2.39,-1.11 0.71,0 1.29,0.27 1.76,0.8 0.46,0.54 0.69,1.1 0.69,1.69 0,0.98 -0.84,1.93 -2.52,2.85 -1.68,0.92 -3.78,1.47 -6.3,1.63l-0.86 3.19c2.12,0.04 3.71,0.5 4.78,1.37 1.06,0.88 1.59,1.94 1.59,3.19 0,1.33 -0.52,2.51 -1.56,3.53 -1.04,1.02 -2.58,1.53 -4.61,1.53 -1.2,0 -2.38,-0.15 -3.55,-0.44 -1.17,-0.29 -1.76,-0.71 -1.76,-1.25 0,-0.29 0.11,-0.65 0.33,-1.09 0.22,-0.44 0.51,-0.66 0.86,-0.66 0.09,0 0.53,0.15 1.3,0.44 0.77,0.29 1.58,0.44 2.42,0.44 2.3,0 3.45,-0.77 3.45,-2.31 0,-1.5 -1.3,-2.36 -3.91,-2.56l-2.86 -0.19 1.46 -5.19c-3.84,-0.25 -6.74,-1.47 -8.69,-3.68 -1.94,-2.21 -2.92,-5 -2.92,-8.37zm24.44 0l0 -6.37c0,-3.21 1.3,-6.01 3.88,-8.4 2.59,-2.4 5.65,-3.59 9.19,-3.59 3.54,0 6.61,1.18 9.22,3.56 2.61,2.37 3.92,5.18 3.92,8.43l0 6.37c0,3.16 -1.32,5.97 -3.95,8.43 -2.63,2.46 -5.7,3.69 -9.19,3.69 -3.49,0 -6.55,-1.22 -9.15,-3.66 -2.61,-2.43 -3.92,-5.26 -3.92,-8.46zm2.52 -27.98c0,-1.13 0.65,-2 1.96,-2.63 1.3,-0.62 2.58,-0.93 3.81,-0.93 1.2,0 2.7,0.32 4.52,0.96 1.81,0.65 3.29,0.97 4.44,0.97 1.11,0 2.12,-0.32 3.05,-0.97 0.93,-0.64 1.53,-0.96 1.79,-0.96 0.49,0 0.87,0.22 1.16,0.67 0.29,0.45 0.43,0.89 0.43,1.32 0,1.2 -0.61,2.09 -1.85,2.66 -1.24,0.56 -2.48,0.84 -3.72,0.84 -1.33,0 -2.87,-0.32 -4.64,-0.97 -1.77,-0.64 -3.23,-0.96 -4.38,-0.96 -1.11,0 -2.16,0.31 -3.15,0.93 -1,0.63 -1.63,0.94 -1.89,0.94 -0.49,0 -0.87,-0.21 -1.13,-0.61 -0.26,-0.41 -0.4,-0.84 -0.4,-1.26zm2.99 27.96c0,1.95 0.75,3.66 2.25,5.15 1.51,1.49 3.28,2.24 5.31,2.24 2.08,0 3.87,-0.76 5.37,-2.27 1.51,-1.51 2.26,-3.22 2.26,-5.12l0 -6.33c0,-1.86 -0.75,-3.54 -2.26,-5.03 -1.5,-1.49 -3.29,-2.24 -5.37,-2.24 -2.08,0 -3.86,0.75 -5.34,2.24 -1.48,1.49 -2.22,3.17 -2.22,5.03l0 6.33zm23.31 0.02l0 -6.56c0,-3.21 1.29,-5.98 3.88,-8.31 2.59,-2.33 5.69,-3.49 9.32,-3.49 3.45,0 6.43,1.08 8.95,3.25 2.52,2.18 3.79,4.91 3.79,8.18 0,1.21 -0.16,2.19 -0.47,2.93 -0.31,0.74 -0.78,1.27 -1.43,1.58 -0.64,0.33 -1.23,0.52 -1.78,0.61 -0.56,0.08 -1.3,0.12 -2.23,0.12l-14.53 0 0 1.88c0,2.29 0.88,4.12 2.62,5.49 1.75,1.38 4.02,2.06 6.8,2.06 1.46,0 2.74,-0.2 3.82,-0.62 1.08,-0.42 1.95,-0.82 2.62,-1.22 0.66,-0.39 1.19,-0.59 1.59,-0.59 0.62,0 1.15,0.26 1.59,0.78 0.45,0.52 0.67,1.05 0.67,1.59 0,0.96 -1.01,1.94 -3.02,2.94 -2.01,1 -4.5,1.5 -7.47,1.5 -4.33,0 -7.87,-1.12 -10.61,-3.35 -2.74,-2.22 -4.11,-5.15 -4.11,-8.77zm5.5 -5.25l12.28 0c1.15,0 1.92,-0.13 2.32,-0.4 0.4,-0.28 0.59,-0.81 0.59,-1.6 0,-1.87 -0.72,-3.52 -2.18,-4.93 -1.46,-1.42 -3.25,-2.12 -5.38,-2.12 -2.08,0 -3.87,0.65 -5.37,1.96 -1.5,1.31 -2.26,2.93 -2.26,4.84l0 2.25zm21.79 12.62c0,-0.54 0.19,-1.07 0.56,-1.59 0.38,-0.52 0.83,-0.78 1.36,-0.78 0.36,0 0.86,0.26 1.53,0.78 0.66,0.52 1.61,1.03 2.85,1.53 1.24,0.5 2.7,0.75 4.38,0.75 2.21,0 3.81,-0.38 4.81,-1.14 0.99,-0.76 1.49,-1.71 1.49,-2.84 0,-1.4 -0.55,-2.5 -1.66,-3.32 -1.1,-0.82 -2.45,-1.44 -4.05,-1.86 -1.59,-0.42 -3.18,-0.89 -4.77,-1.39 -1.59,-0.51 -2.94,-1.35 -4.05,-2.53 -1.1,-1.17 -1.66,-2.74 -1.66,-4.67 0,-2.36 0.9,-4.39 2.69,-6.1 1.79,-1.72 4.52,-2.57 8.19,-2.57 2.35,0 4.49,0.33 6.44,0.99 1.94,0.67 2.92,1.43 2.92,2.27 0,0.5 -0.21,1.07 -0.63,1.69 -0.42,0.62 -0.94,0.94 -1.56,0.94 -0.18,0 -1.03,-0.3 -2.56,-0.92 -1.52,-0.61 -3.04,-0.91 -4.54,-0.91 -2.03,0 -3.55,0.44 -4.54,1.35 -1,0.9 -1.5,1.94 -1.5,3.07 0,1.18 0.56,2.1 1.66,2.78 1.11,0.67 2.47,1.2 4.08,1.57 1.62,0.39 3.22,0.84 4.81,1.4 1.59,0.55 2.94,1.48 4.05,2.81 1.1,1.32 1.65,3.04 1.65,5.14 0,2.56 -0.97,4.58 -2.91,6.07 -1.95,1.49 -4.67,2.23 -8.16,2.23 -3.01,0 -5.58,-0.51 -7.7,-1.53 -2.12,-1.02 -3.18,-2.1 -3.18,-3.22zm37.24 -7.37l0 -6.25c0,-3.58 1.12,-6.49 3.35,-8.74 2.23,-2.25 5.51,-3.37 9.85,-3.37 2.74,0 5.05,0.45 6.93,1.37 1.88,0.92 2.82,1.89 2.82,2.94 0,0.58 -0.23,1.15 -0.7,1.71 -0.46,0.56 -1,0.85 -1.62,0.85 -0.18,0 -0.94,-0.36 -2.29,-1.07 -1.35,-0.7 -2.93,-1.06 -4.74,-1.06 -2.66,0 -4.67,0.65 -6.04,1.93 -1.37,1.28 -2.06,3.1 -2.06,5.46l0 6.21c0,4.92 2.72,7.39 8.16,7.39 1.86,0 3.48,-0.37 4.85,-1.09 1.37,-0.73 2.16,-1.1 2.38,-1.1 0.71,0 1.3,0.27 1.76,0.82 0.47,0.54 0.7,1.1 0.7,1.68 0,1.04 -0.97,2.04 -2.92,3 -1.95,0.96 -4.33,1.44 -7.16,1.44 -4.38,0 -7.69,-1.12 -9.92,-3.35 -2.23,-2.22 -3.35,-5.15 -3.35,-8.77zm26.56 9.74l0 -43.78c0,-0.54 0.25,-0.98 0.76,-1.31 0.51,-0.34 1.16,-0.5 1.96,-0.5 0.79,0 1.46,0.16 1.99,0.5 0.53,0.33 0.79,0.77 0.79,1.31l0 43.78c0,0.46 -0.27,0.89 -0.83,1.28 -0.55,0.4 -1.2,0.6 -1.95,0.6 -0.75,0 -1.39,-0.19 -1.93,-0.57 -0.53,-0.37 -0.79,-0.81 -0.79,-1.31zm9.91 -9.74l0 -6.37c0,-3.21 1.29,-6.01 3.88,-8.4 2.58,-2.4 5.65,-3.59 9.19,-3.59 3.53,0 6.61,1.18 9.22,3.56 2.61,2.37 3.91,5.18 3.91,8.43l0 6.37c0,3.16 -1.32,5.97 -3.95,8.43 -2.63,2.46 -5.69,3.69 -9.18,3.69 -3.5,0 -6.55,-1.22 -9.16,-3.66 -2.61,-2.43 -3.91,-5.26 -3.91,-8.46zm5.5 -0.02c0,1.95 0.75,3.66 2.26,5.15 1.5,1.49 3.27,2.24 5.31,2.24 2.07,0 3.87,-0.76 5.37,-2.27 1.5,-1.51 2.25,-3.22 2.25,-5.12l0 -6.33c0,-1.86 -0.75,-3.54 -2.25,-5.03 -1.5,-1.49 -3.3,-2.24 -5.37,-2.24 -2.08,0 -3.86,0.75 -5.34,2.24 -1.49,1.49 -2.23,3.17 -2.23,5.03l0 6.33zm24.24 0.14l0 -16.24c0,-0.5 0.28,-0.93 0.83,-1.31 0.55,-0.37 1.21,-0.56 1.96,-0.56 0.71,0 1.34,0.2 1.89,0.59 0.55,0.4 0.83,0.83 0.83,1.28l0 16.2c0,1.86 0.75,3.55 2.25,5.05 1.51,1.49 3.3,2.24 5.38,2.24 2.03,0 3.8,-0.74 5.3,-2.21 1.51,-1.48 2.26,-3.17 2.26,-5.08l0 -16.26c0,-0.46 0.28,-0.87 0.83,-1.25 0.55,-0.37 1.2,-0.56 1.96,-0.56 0.79,0 1.44,0.18 1.95,0.53 0.51,0.35 0.77,0.78 0.77,1.28l0 16.3c0,3.21 -1.3,6.01 -3.89,8.4 -2.58,2.4 -5.64,3.6 -9.18,3.6 -3.58,0 -6.67,-1.2 -9.26,-3.6 -2.58,-2.39 -3.88,-5.19 -3.88,-8.4zm29.75 -0.12l0 -6.37c0,-3.29 1.17,-6.11 3.51,-8.47 2.35,-2.35 5.13,-3.52 8.36,-3.52 1.99,0 3.74,0.46 5.24,1.39 1.51,0.93 2.66,2.06 3.45,3.41l0 -20.42c0,-0.54 0.27,-0.98 0.8,-1.31 0.53,-0.33 1.19,-0.5 1.99,-0.5 0.79,0 1.45,0.17 1.96,0.5 0.5,0.33 0.76,0.77 0.76,1.31l0 43.72c0,0.5 -0.27,0.94 -0.8,1.31 -0.53,0.38 -1.17,0.57 -1.92,0.57 -0.67,0 -1.25,-0.19 -1.76,-0.58 -0.51,-0.37 -0.76,-0.82 -0.76,-1.33l0 -2.53c-0.76,1.36 -1.97,2.51 -3.65,3.48 -1.68,0.97 -3.52,1.46 -5.51,1.46 -3.09,0 -5.81,-1.23 -8.16,-3.69 -2.34,-2.46 -3.51,-5.27 -3.51,-8.43zm5.5 -0.02c0,1.9 0.75,3.61 2.26,5.12 1.5,1.51 3.25,2.27 5.24,2.27 1.95,0 3.69,-0.7 5.24,-2.08 1.55,-1.39 2.32,-2.6 2.32,-3.64l0 -8c0,-2.16 -0.75,-3.9 -2.25,-5.25 -1.51,-1.34 -3.25,-2.02 -5.24,-2.02 -2.04,0 -3.81,0.75 -5.31,2.24 -1.51,1.49 -2.26,3.17 -2.26,5.03l0 6.33zm24.84 -3.32c0,-0.62 0.18,-1.14 0.53,-1.58 0.35,-0.42 0.82,-0.64 1.39,-0.64l17.25 0c0.53,0 0.99,0.22 1.39,0.64 0.4,0.44 0.6,0.96 0.6,1.58 0,0.61 -0.2,1.12 -0.6,1.54 -0.4,0.4 -0.86,0.61 -1.39,0.61l-17.25 0c-1.28,0 -1.92,-0.72 -1.92,-2.15zm25.37 13.08l0 -25.92c0,-0.54 0.25,-0.98 0.76,-1.31 0.51,-0.33 1.16,-0.5 1.95,-0.5 0.67,0 1.25,0.18 1.76,0.54 0.51,0.35 0.77,0.79 0.77,1.3l0 2.59c0.7,-1.35 1.84,-2.48 3.41,-3.41 1.57,-0.93 3.4,-1.39 5.47,-1.39 3.14,0 5.88,1.17 8.2,3.52 2.32,2.36 3.48,5.18 3.48,8.47l0 16.11c0,0.59 -0.28,1.04 -0.83,1.38 -0.55,0.33 -1.2,0.5 -1.96,0.5 -0.7,0 -1.33,-0.17 -1.89,-0.5 -0.55,-0.34 -0.83,-0.79 -0.83,-1.38l0 -16.07c0,-1.86 -0.75,-3.55 -2.25,-5.05 -1.51,-1.49 -3.27,-2.24 -5.31,-2.24 -1.9,0 -3.58,0.68 -5.04,2.03 -1.46,1.35 -2.19,3.1 -2.19,5.26l0 16.07c0,0.46 -0.29,0.89 -0.86,1.28 -0.58,0.4 -1.22,0.6 -1.93,0.6 -0.75,0 -1.39,-0.19 -1.92,-0.57 -0.53,-0.37 -0.79,-0.81 -0.79,-1.31zm28.48 -5.86c0,-3.28 1.33,-5.56 3.98,-6.84 2.65,-1.28 6.5,-1.91 11.54,-1.91l3.19 0 0 -1.32c0,-2.1 -0.61,-3.92 -1.83,-5.47 -1.21,-1.55 -3.04,-2.33 -5.47,-2.33 -1.86,0 -3.49,0.31 -4.91,0.93 -1.42,0.63 -2.19,0.94 -2.32,0.94 -0.62,0 -1.12,-0.28 -1.49,-0.84 -0.38,-0.56 -0.57,-1.16 -0.57,-1.78 0,-0.96 1.01,-1.8 3.02,-2.53 2.01,-0.73 4.15,-1.09 6.4,-1.09 4.34,0 7.53,1.15 9.59,3.46 2.05,2.31 3.08,5.2 3.08,8.65l0 15.99c0,0.54 -0.25,0.99 -0.76,1.35 -0.51,0.35 -1.16,0.53 -1.96,0.53 -0.71,0 -1.3,-0.18 -1.79,-0.52 -0.48,-0.35 -0.73,-0.79 -0.73,-1.3l0 -2.44c-3.01,3.17 -6.34,4.76 -10.01,4.76 -2.66,0 -4.81,-0.7 -6.47,-2.11 -1.66,-1.4 -2.49,-3.44 -2.49,-6.13zm5.57 -0.57c0,1.56 0.47,2.74 1.39,3.54 0.93,0.8 2.17,1.21 3.72,1.21 1.86,0 3.66,-0.71 5.41,-2.13 1.74,-1.4 2.62,-2.85 2.62,-4.33l0 -3.29 -2.33 0c-1.28,0 -2.38,0.03 -3.31,0.1 -0.93,0.06 -1.89,0.18 -2.89,0.38 -0.99,0.19 -1.81,0.46 -2.45,0.82 -0.64,0.36 -1.16,0.85 -1.56,1.45 -0.4,0.62 -0.6,1.36 -0.6,2.25zm23.24 -1.13l0 -32.16c0,-0.5 0.29,-0.93 0.87,-1.28 0.57,-0.36 1.19,-0.53 1.86,-0.53 0.7,0 1.34,0.17 1.92,0.53 0.57,0.35 0.86,0.78 0.86,1.28l0 11.99 8.36 0c0.49,0 0.88,0.21 1.19,0.62 0.31,0.42 0.47,0.9 0.47,1.44 0,0.54 -0.16,1.01 -0.47,1.41 -0.31,0.39 -0.7,0.59 -1.19,0.59l-8.36 0 0 15.97c0,1.78 0.41,3.03 1.23,3.75 0.82,0.71 2.24,1.08 4.28,1.08l2.05 0c0.76,0 1.34,0.23 1.76,0.69 0.42,0.44 0.63,1 0.63,1.65 0,0.65 -0.22,1.21 -0.66,1.69 -0.44,0.48 -1.02,0.72 -1.73,0.72l-2.05 0c-7.34,0 -11.02,-3.15 -11.02,-9.44zm18.17 -29.2c-0.68,-0.6 -1.02,-1.3 -1.02,-2.09 0,-0.79 0.33,-1.48 0.99,-2.06 0.66,-0.58 1.48,-0.87 2.46,-0.87 0.92,0 1.72,0.29 2.38,0.87 0.67,0.58 1,1.27 1,2.06 0,0.79 -0.33,1.49 -1,2.09 -0.66,0.61 -1.46,0.91 -2.38,0.91 -0.93,0 -1.74,-0.3 -2.43,-0.91zm-0.29 36.76l0 -25.92c0,-0.54 0.26,-0.98 0.79,-1.31 0.53,-0.33 1.17,-0.5 1.93,-0.5 0.79,0 1.45,0.17 1.99,0.5 0.53,0.33 0.79,0.77 0.79,1.31l0 25.92c0,0.46 -0.28,0.89 -0.83,1.28 -0.55,0.4 -1.2,0.6 -1.95,0.6 -0.76,0 -1.4,-0.19 -1.93,-0.57 -0.53,-0.37 -0.79,-0.81 -0.79,-1.31zm7.38 -25.61c0,-0.58 0.39,-1.1 1.17,-1.56 0.77,-0.46 1.55,-0.68 2.35,-0.68 0.93,0 1.53,0.33 1.79,0.99l8.43 21.24 8.29 -20.99c0.35,-0.83 0.95,-1.24 1.79,-1.24 0.71,0 1.48,0.22 2.32,0.68 0.84,0.46 1.26,0.98 1.26,1.56 0,0.34 -0.09,0.67 -0.26,1l-10.88 25.92c-0.36,0.75 -1.2,1.13 -2.52,1.13 -1.38,0 -2.24,-0.38 -2.59,-1.13l-10.88 -25.92c-0.18,-0.5 -0.27,-0.83 -0.27,-1zm28.09 15.87l0 -6.56c0,-3.21 1.29,-5.98 3.88,-8.31 2.59,-2.33 5.69,-3.49 9.32,-3.49 3.45,0 6.44,1.08 8.96,3.25 2.52,2.18 3.78,4.91 3.78,8.18 0,1.21 -0.16,2.19 -0.47,2.93 -0.31,0.74 -0.78,1.27 -1.42,1.58 -0.64,0.33 -1.24,0.52 -1.79,0.61 -0.56,0.08 -1.3,0.12 -2.23,0.12l-14.52 0 0 1.88c0,2.29 0.87,4.12 2.62,5.49 1.74,1.38 4.01,2.06 6.8,2.06 1.45,0 2.73,-0.2 3.81,-0.62 1.08,-0.42 1.96,-0.82 2.62,-1.22 0.66,-0.39 1.19,-0.59 1.59,-0.59 0.62,0 1.15,0.26 1.59,0.78 0.45,0.52 0.67,1.05 0.67,1.59 0,0.96 -1.01,1.94 -3.02,2.94 -2.01,1 -4.5,1.5 -7.46,1.5 -4.34,0 -7.88,-1.12 -10.62,-3.35 -2.74,-2.22 -4.11,-5.15 -4.11,-8.77zm5.51 -5.25l12.27 0c1.15,0 1.92,-0.13 2.32,-0.4 0.4,-0.28 0.6,-0.81 0.6,-1.6 0,-1.87 -0.73,-3.52 -2.19,-4.93 -1.46,-1.42 -3.25,-2.12 -5.38,-2.12 -2.07,0 -3.86,0.65 -5.37,1.96 -1.5,1.31 -2.25,2.93 -2.25,4.84l0 2.25z"/>
  <path class="fil2" d="M129.64 112.24l0 -88.08c0,-1.44 0.76,-2.7 2.27,-3.78 1.52,-1.09 3.46,-1.63 5.83,-1.63l25.16 0c10.14,0 18.24,2.48 24.3,7.44 6.07,4.96 9.1,12.81 9.1,23.55l0 36.93c0,10.74 -3.03,18.58 -9.1,23.54 -6.06,4.96 -14.16,7.44 -24.3,7.44l-25.16 0c-2.37,0 -4.31,-0.54 -5.83,-1.62 -1.51,-1.08 -2.27,-2.35 -2.27,-3.79zm252.76 -0.4l0 -87.74c0,-1.87 1.08,-2.8 3.25,-2.8l21.13 0c8.85,0 15.69,1.5 20.52,4.52 4.83,3.02 7.25,8.65 7.25,16.9 0,5.36 -1.04,9.89 -3.12,13.58 -2.08,3.7 -4.88,6.27 -8.4,7.72 4.52,1.78 7.97,4.38 10.36,7.78 2.4,3.4 3.59,8.2 3.59,14.41l0 2.3c0,9.09 -2.41,15.7 -7.24,19.83 -4.83,4.12 -11.31,6.18 -19.44,6.18l-24.65 0c-0.99,0 -1.78,-0.25 -2.37,-0.76 -0.59,-0.51 -0.88,-1.15 -0.88,-1.92zm6.77 -3.44l20.59 0c13.63,0 20.45,-6.72 20.45,-20.15l0 -2.17c0,-6.71 -1.74,-11.58 -5.21,-14.6 -3.48,-3.02 -8.56,-4.53 -15.24,-4.53l-20.59 0 0 41.45zm0 -47.31l18.29 0c7.13,0 12.3,-1.34 15.5,-4.02 3.21,-2.68 4.81,-7.29 4.81,-13.84 0,-6.12 -1.76,-10.29 -5.28,-12.5 -3.52,-2.21 -8.71,-3.31 -15.58,-3.31l-17.74 0 0 33.67zm57.75 50.63l0 -54.84c0,-1.7 1.08,-2.55 3.25,-2.55 0.91,0 1.67,0.23 2.3,0.7 0.64,0.46 0.95,1.08 0.95,1.85l0 6.5c1.63,-2.8 4.04,-5.14 7.25,-7.01 3.21,-1.87 6.93,-2.81 11.17,-2.81l4.88 0c0.81,0 1.51,0.28 2.1,0.83 0.59,0.55 0.88,1.25 0.88,2.1 0,0.85 -0.29,1.56 -0.88,2.11 -0.59,0.55 -1.29,0.83 -2.1,0.83l-4.88 0c-4.87,0 -9.14,1.72 -12.8,5.16 -3.65,3.45 -5.48,7.93 -5.48,13.46l0 33.67c0,0.68 -0.34,1.31 -1.02,1.91 -0.67,0.59 -1.46,0.89 -2.37,0.89 -0.9,0 -1.67,-0.27 -2.3,-0.83 -0.63,-0.55 -0.95,-1.21 -0.95,-1.97zm-298.8 -9.49l14.78 0c9.95,0 14.92,-5.19 14.92,-15.56l0 -36.93c0,-10.38 -4.97,-15.56 -14.92,-15.56l-14.78 0 0 68.05zm63.95 9.88l0 -87.81c0,-1.8 0.9,-3.18 2.71,-4.13 1.79,-0.95 3.97,-1.42 6.53,-1.42 3.41,0 6.02,0.59 7.82,1.76 1.8,1.17 3.79,3.7 5.97,7.58l27.43 50.46 0 -54.39c0,-1.8 0.9,-3.15 2.7,-4.06 1.8,-0.9 3.98,-1.35 6.54,-1.35 2.56,0 4.74,0.45 6.54,1.35 1.8,0.91 2.7,2.26 2.7,4.06l0 87.95c0,1.71 -0.93,3.06 -2.77,4.06 -1.85,0.99 -4.01,1.48 -6.47,1.48 -5.02,0 -8.58,-1.84 -10.66,-5.54l-30.56 -54.39 0 54.39c0,1.71 -0.92,3.06 -2.77,4.06 -1.85,0.99 -4,1.48 -6.47,1.48 -2.56,0 -4.74,-0.49 -6.53,-1.48 -1.81,-1 -2.71,-2.35 -2.71,-4.06zm79.31 -2.57c0,-0.91 0.38,-1.99 1.14,-3.25l24.59 -38.16 -23.74 -38.01c-0.85,-1.36 -1.28,-2.62 -1.28,-3.79 0,-2.26 1.26,-4.2 3.77,-5.82 2.51,-1.62 5.19,-2.44 8.03,-2.44 2.65,0 4.69,1.27 6.11,3.79l19.33 33.15 19.33 -33.15c1.52,-2.52 3.6,-3.79 6.25,-3.79 2.85,0 5.52,0.82 8.04,2.44 2.51,1.62 3.76,3.56 3.76,5.82 0,1.17 -0.42,2.43 -1.28,3.79l-23.73 38.01 24.59 38.16c0.66,1.17 0.99,2.25 0.99,3.25 0,2.34 -1.33,4.39 -3.98,6.15 -2.65,1.76 -5.35,2.64 -8.1,2.64 -2.28,0 -3.93,-0.95 -4.98,-2.84l-20.89 -34.77 -20.75 34.77c-1.14,1.89 -2.84,2.84 -5.12,2.84 -2.65,0 -5.33,-0.88 -8.03,-2.64 -2.7,-1.76 -4.05,-3.81 -4.05,-6.15z"/>
  <path class="fil1" d="M555.35 6.51l0 0c1.22,0 2.22,1 2.22,2.23l0 116.38c0,1.22 -1,2.23 -2.22,2.23l0 0c-1.23,0 -2.23,-1.01 -2.23,-2.23l0 -116.38c0,-1.23 1,-2.23 2.23,-2.23z"/>
 </g>
</svg>
